<svg width="200" height="200" viewBox="0 0 200 200" fill="none" xmlns="http://www.w3.org/2000/svg">
<rect width="200" height="200" rx="100" fill="#6366F1"/>
<path d="M99.9999 83.1035C103.32 83.0863 106.569 84.0609 109.331 85.9024C112.093 87.7438 114.242 90.3682 115.503 93.4391C116.764 96.51 117.08 99.8875 116.409 103.139C115.738 106.39 114.111 109.367 111.737 111.687C109.363 114.008 106.351 115.567 103.085 116.164C99.8197 116.762 96.4501 116.37 93.4085 115.04C90.3668 113.71 87.7917 111.502 86.0132 108.699C84.2346 105.896 83.3337 102.626 83.4259 99.3072C83.5459 94.9836 85.3421 90.8761 88.4349 87.8524C91.5276 84.8288 95.6747 83.1259 99.9999 83.1035Z" fill="white"/>
<path fill-rule="evenodd" clip-rule="evenodd" d="M106.945 71.5296V41.3445C106.945 39.5027 106.213 37.7363 104.911 36.434C103.608 35.1317 101.842 34.4 100 34.4C98.1583 34.4 96.392 35.1317 95.0896 36.434C93.7873 37.7363 93.0557 39.5027 93.0557 41.3445V71.5296C93.0557 73.3714 93.7873 75.1377 95.0896 76.44C96.392 77.7424 98.1583 78.474 100 78.474C101.842 78.474 103.608 77.7424 104.911 76.44C106.213 75.1377 106.945 73.3714 106.945 71.5296Z" fill="white"/>
<path fill-rule="evenodd" clip-rule="evenodd" d="M106.946 158.791V128.606C106.946 126.764 106.214 124.998 104.912 123.695C103.609 122.393 101.843 121.661 100.001 121.661C98.1595 121.661 96.3932 122.393 95.0909 123.695C93.7885 124.998 93.0569 126.764 93.0569 128.606V158.791C93.0569 160.633 93.7885 162.399 95.0909 163.701C96.3932 165.004 98.1595 165.735 100.001 165.735C101.843 165.735 103.609 165.004 104.912 163.701C106.214 162.399 106.946 160.633 106.946 158.791Z" fill="white"/>
<path fill-rule="evenodd" clip-rule="evenodd" d="M124.629 84.5852L146.018 63.1963C147.245 61.8799 147.913 60.1387 147.881 58.3396C147.849 56.5405 147.12 54.824 145.848 53.5517C144.576 52.2793 142.859 51.5505 141.06 51.5188C139.261 51.487 137.52 52.1548 136.203 53.3815L114.815 74.7704C114.159 75.4087 113.639 76.1719 113.283 77.0147C112.928 77.8575 112.745 78.763 112.745 79.6777C112.745 80.5925 112.928 81.498 113.283 82.3408C113.639 83.1837 114.159 83.9468 114.815 84.5852C116.117 85.8856 117.882 86.6161 119.722 86.6161C121.562 86.6161 123.327 85.8856 124.629 84.5852Z" fill="white"/>
<path fill-rule="evenodd" clip-rule="evenodd" d="M127.87 106.252H158.056C159.897 106.252 161.664 105.52 162.966 104.218C164.268 102.915 165 101.149 165 99.3072C165 97.4654 164.268 95.6991 162.966 94.3968C161.664 93.0944 159.897 92.3628 158.056 92.3628H127.87C126.029 92.3628 124.262 93.0944 122.96 94.3968C121.658 95.6991 120.926 97.4654 120.926 99.3072C120.926 101.149 121.658 102.915 122.96 104.218C124.262 105.52 126.029 106.252 127.87 106.252Z" fill="white"/>
<path fill-rule="evenodd" clip-rule="evenodd" d="M114.815 123.937L136.203 145.326C137.52 146.552 139.261 147.22 141.06 147.188C142.859 147.157 144.576 146.428 145.848 145.156C147.12 143.883 147.849 142.167 147.881 140.368C147.913 138.569 147.245 136.827 146.018 135.511L124.629 114.122C123.313 112.895 121.572 112.228 119.773 112.259C117.974 112.291 116.257 113.02 114.985 114.292C113.712 115.565 112.984 117.281 112.952 119.08C112.92 120.879 113.588 122.62 114.815 123.937Z" fill="white"/>
<path fill-rule="evenodd" clip-rule="evenodd" d="M75.4626 114.122L54.0738 135.511C53.4186 136.149 52.8979 136.912 52.5424 137.755C52.1868 138.598 52.0037 139.504 52.0037 140.418C52.0037 141.333 52.1868 142.239 52.5424 143.081C52.8979 143.924 53.4186 144.687 54.0738 145.326C55.3758 146.626 57.1409 147.357 58.9811 147.357C60.8214 147.357 62.5865 146.626 63.8885 145.326L85.2774 123.937C86.5779 122.635 87.3083 120.87 87.3083 119.029C87.3083 117.189 86.5779 115.424 85.2774 114.122C84.639 113.467 83.8759 112.946 83.0331 112.591C82.1902 112.235 81.2847 112.052 80.37 112.052C79.4552 112.052 78.5498 112.235 77.7069 112.591C76.8641 112.946 76.101 113.467 75.4626 114.122Z" fill="white"/>
<path fill-rule="evenodd" clip-rule="evenodd" d="M72.2222 92.3628H41.9444C40.1027 92.3628 38.3363 93.0944 37.034 94.3968C35.7316 95.6991 35 97.4654 35 99.3072C35 101.149 35.7316 102.915 37.034 104.218C38.3363 105.52 40.1027 106.252 41.9444 106.252H72.2222C74.0639 106.252 75.8303 105.52 77.1326 104.218C78.4349 102.915 79.1666 101.149 79.1666 99.3072C79.1666 97.4654 78.4349 95.6991 77.1326 94.3968C75.8303 93.0944 74.0639 92.3628 72.2222 92.3628Z" fill="white"/>
<path fill-rule="evenodd" clip-rule="evenodd" d="M85.2774 74.7704L63.8885 53.3815C62.5865 52.081 60.8214 51.3506 58.9811 51.3506C57.1409 51.3506 55.3758 52.081 54.0738 53.3815C53.4186 54.0199 52.8979 54.783 52.5424 55.6258C52.1868 56.4687 52.0037 57.3742 52.0037 58.2889C52.0037 59.2037 52.1868 60.1092 52.5424 60.952C52.8979 61.7948 53.4186 62.5579 54.0738 63.1963L75.4626 84.5852C76.7647 85.8856 78.5297 86.6161 80.37 86.6161C82.2103 86.6161 83.9753 85.8856 85.2774 84.5852C86.5779 83.2831 87.3083 81.518 87.3083 79.6778C87.3083 77.8375 86.5779 76.0724 85.2774 74.7704Z" fill="white"/>
<path d="M127.407 47.8258C127.957 46.4626 127.944 44.9372 127.371 43.5835C126.799 42.2299 125.713 41.1584 124.352 40.6036C122.987 40.0448 121.458 40.0419 120.091 40.5955C118.724 41.1492 117.628 42.2155 117.037 43.5665C116.674 44.8958 116.809 46.312 117.417 47.5484C118.026 48.7849 119.065 49.7563 120.34 50.2799C121.614 50.8034 123.036 50.8429 124.338 50.3909C125.64 49.9389 126.731 49.0266 127.407 47.8258Z" fill="white"/>
<path d="M155.833 82.2703C157.196 81.7055 158.279 80.6224 158.843 79.2593C159.408 77.8962 159.407 76.3647 158.842 75.0018C158.278 73.6389 157.195 72.5561 155.831 71.9918C154.468 71.4274 152.937 71.4277 151.574 71.9925C150.899 72.2722 150.286 72.682 149.769 73.1987C149.253 73.7153 148.843 74.3286 148.564 75.0035C148 76.3667 148 77.8981 148.565 79.261C149.129 80.6239 150.213 81.7067 151.576 82.271C152.251 82.5504 152.974 82.6942 153.705 82.6941C154.435 82.694 155.158 82.5499 155.833 82.2703Z" fill="white"/>
<path d="M151.574 126.714C152.937 127.279 154.468 127.28 155.831 126.715C157.195 126.151 158.278 125.068 158.842 123.705C159.407 122.342 159.408 120.811 158.843 119.448C158.279 118.085 157.196 117.002 155.833 116.437C155.158 116.157 154.435 116.013 153.705 116.013C152.974 116.013 152.251 116.157 151.576 116.436C150.901 116.715 150.287 117.125 149.771 117.642C149.254 118.158 148.844 118.771 148.565 119.446C148.285 120.121 148.141 120.844 148.141 121.575C148.141 122.305 148.285 123.029 148.564 123.703C148.843 124.378 149.253 124.992 149.769 125.508C150.286 126.025 150.899 126.435 151.574 126.714Z" fill="white"/>
<path d="M117.037 155.14C117.7 156.38 118.802 157.328 120.128 157.799C121.453 158.269 122.906 158.228 124.203 157.684C125.499 157.14 126.546 156.132 127.139 154.856C127.732 153.581 127.827 152.131 127.407 150.789C126.731 149.588 125.64 148.675 124.338 148.223C123.036 147.772 121.614 147.811 120.34 148.335C119.065 148.858 118.026 149.829 117.417 151.066C116.809 152.302 116.674 153.719 117.037 155.048V155.14Z" fill="white"/>
<path d="M72.5926 150.789C72.1725 152.131 72.2682 153.581 72.8609 154.856C73.4535 156.132 74.5006 157.14 75.7973 157.684C77.094 158.228 78.547 158.269 79.8723 157.799C81.1975 157.328 82.2996 156.38 82.963 155.14C83.248 154.467 83.3949 153.743 83.3949 153.012C83.3949 152.28 83.2481 151.556 82.9631 150.883C82.6782 150.209 82.2609 149.6 81.736 149.091C81.2111 148.581 80.5893 148.183 79.9074 147.918C79.233 147.629 78.508 147.476 77.7743 147.469C77.0405 147.462 76.3126 147.6 75.6325 147.875C74.9524 148.151 74.3336 148.558 73.8118 149.074C73.2901 149.59 72.8757 150.204 72.5926 150.881V150.789Z" fill="white"/>
<path d="M44.2592 116.437C43.5773 116.701 42.9555 117.1 42.4306 117.609C41.9057 118.118 41.4884 118.728 41.2035 119.402C40.9185 120.075 40.7717 120.799 40.7717 121.53C40.7718 122.262 40.9186 122.986 41.2036 123.659C41.4778 124.344 41.8858 124.968 42.4037 125.494C42.9217 126.019 43.5391 126.437 44.2201 126.721C44.9011 127.006 45.6319 127.152 46.3699 127.15C47.1079 127.149 47.8383 127.001 48.5184 126.715C49.8862 126.141 50.9733 125.052 51.5451 123.683C52.1168 122.315 52.1272 120.776 51.574 119.4C51.2909 118.723 50.8766 118.109 50.3548 117.593C49.8331 117.077 49.2143 116.669 48.5342 116.394C47.854 116.118 47.1261 115.98 46.3924 115.988C45.6586 115.995 44.9336 116.148 44.2592 116.437Z" fill="white"/>
<path d="M48.5182 71.9925C47.1553 71.4277 45.6238 71.4274 44.2607 71.9918C42.8976 72.5561 41.8145 73.6389 41.2497 75.0018C40.6849 76.3647 40.6847 77.8962 41.249 79.2593C41.8133 80.6224 42.8961 81.7055 44.259 82.2703C44.9268 82.5578 45.6452 82.7091 46.3722 82.7154C47.0993 82.7217 47.8202 82.5828 48.4929 82.3068C49.1655 82.0309 49.7763 81.6234 50.2894 81.1084C50.8026 80.5933 51.2077 79.981 51.4812 79.3073C51.7703 78.6329 51.923 77.9079 51.9304 77.1742C51.9378 76.4404 51.7998 75.7125 51.5243 75.0324C51.2488 74.3522 50.8414 73.7335 50.3254 73.2117C49.8094 72.6899 49.1952 72.2756 48.5182 71.9925Z" fill="white"/>
<path d="M82.9631 43.5665C82.2872 42.3657 81.1956 41.4534 79.8939 41.0015C78.5921 40.5495 77.17 40.5889 75.8954 41.1125C74.6207 41.636 73.5814 42.6074 72.9731 43.8439C72.3649 45.0804 72.2296 46.4965 72.5928 47.8258C73.1839 49.1768 74.28 50.2431 75.6468 50.7968C77.0137 51.3504 78.5429 51.3476 79.9076 50.7887C81.2687 50.234 82.3545 49.1624 82.9272 47.8088C83.4999 46.4551 83.5128 44.9297 82.9631 43.5665Z" fill="white"/>
</svg>
