<svg width="650" height="657" viewBox="0 0 650 657" fill="none" xmlns="http://www.w3.org/2000/svg">
<path d="M325 243.517C341.598 243.432 357.844 248.305 371.655 257.512C385.466 266.719 396.212 279.841 402.517 295.195C408.822 310.55 410.398 327.438 407.043 343.694C403.688 359.95 395.555 374.833 383.686 386.437C371.817 398.041 356.754 405.836 340.426 408.822C324.098 411.809 307.251 409.852 292.042 403.202C276.834 396.551 263.959 385.511 255.066 371.495C246.173 357.48 241.668 341.128 242.129 324.536C242.73 302.918 251.711 282.38 267.174 267.262C282.638 252.144 303.374 243.629 325 243.517Z" fill="#D1D5DB"/>
<path fill-rule="evenodd" clip-rule="evenodd" d="M359.722 185.648V34.7222C359.722 25.5133 356.064 16.6816 349.552 10.1699C343.041 3.65823 334.209 0 325 0C315.791 0 306.96 3.65823 300.448 10.1699C293.936 16.6816 290.278 25.5133 290.278 34.7222V185.648C290.278 194.857 293.936 203.688 300.448 210.2C306.96 216.712 315.791 220.37 325 220.37C334.209 220.37 343.041 216.712 349.552 210.2C356.064 203.688 359.722 194.857 359.722 185.648V185.648Z" fill="#D1D5DB"/>
<path fill-rule="evenodd" clip-rule="evenodd" d="M359.729 621.954V471.028C359.729 461.819 356.07 452.988 349.559 446.476C343.047 439.964 334.215 436.306 325.006 436.306C315.798 436.306 306.966 439.964 300.454 446.476C293.942 452.988 290.284 461.819 290.284 471.028V621.954C290.284 631.163 293.942 639.995 300.454 646.506C306.966 653.018 315.798 656.676 325.006 656.676C334.215 656.676 343.047 653.018 349.559 646.506C356.07 639.995 359.729 631.163 359.729 621.954V621.954Z" fill="#D1D5DB"/>
<path fill-rule="evenodd" clip-rule="evenodd" d="M448.147 250.925L555.091 143.981C561.225 137.399 564.564 128.693 564.405 119.698C564.246 110.702 560.602 102.12 554.241 95.7581C547.879 89.3964 539.296 85.7523 530.301 85.5936C521.305 85.4349 512.6 88.7739 506.017 94.9072L399.073 201.851C395.797 205.043 393.194 208.859 391.416 213.073C389.639 217.287 388.723 221.815 388.723 226.388C388.723 230.962 389.639 235.49 391.416 239.704C393.194 243.918 395.797 247.734 399.073 250.925C405.584 257.428 414.409 261.08 423.61 261.08C432.812 261.08 441.637 257.428 448.147 250.925V250.925Z" fill="#D1D5DB"/>
<path fill-rule="evenodd" clip-rule="evenodd" d="M464.352 359.258H615.278C624.487 359.258 633.319 355.6 639.83 349.089C646.342 342.577 650 333.745 650 324.536C650 315.327 646.342 306.496 639.83 299.984C633.319 293.472 624.487 289.814 615.278 289.814H464.352C455.143 289.814 446.312 293.472 439.8 299.984C433.288 306.496 429.63 315.327 429.63 324.536C429.63 333.745 433.288 342.577 439.8 349.089C446.312 355.6 455.143 359.258 464.352 359.258Z" fill="#D1D5DB"/>
<path fill-rule="evenodd" clip-rule="evenodd" d="M399.073 447.684L506.017 554.629C512.6 560.762 521.305 564.101 530.301 563.942C539.296 563.783 547.879 560.139 554.241 553.778C560.602 547.416 564.246 538.833 564.405 529.838C564.564 520.843 561.225 512.137 555.091 505.555L448.147 398.61C441.565 392.477 432.859 389.138 423.864 389.297C414.868 389.455 406.286 393.099 399.924 399.461C393.562 405.823 389.918 414.406 389.76 423.401C389.601 432.396 392.94 441.102 399.073 447.684Z" fill="#D1D5DB"/>
<path fill-rule="evenodd" clip-rule="evenodd" d="M202.314 398.61L95.3699 505.555C92.0941 508.746 89.4906 512.562 87.7129 516.776C85.9352 520.99 85.0194 525.518 85.0194 530.092C85.0194 534.665 85.9352 539.193 87.7129 543.407C89.4906 547.621 92.0941 551.437 95.3699 554.628C101.88 561.131 110.705 564.783 119.907 564.783C129.108 564.783 137.933 561.131 144.444 554.628L251.388 447.684C257.89 441.174 261.543 432.349 261.543 423.147C261.543 413.946 257.89 405.121 251.388 398.61C248.196 395.334 244.381 392.731 240.166 390.953C235.952 389.176 231.425 388.26 226.851 388.26C222.277 388.26 217.75 389.176 213.536 390.953C209.322 392.731 205.506 395.334 202.314 398.61V398.61Z" fill="#D1D5DB"/>
<path fill-rule="evenodd" clip-rule="evenodd" d="M186.111 289.814H34.7222C25.5133 289.814 16.6816 293.472 10.1699 299.984C3.65822 306.496 0 315.327 0 324.536C0 333.745 3.65822 342.577 10.1699 349.089C16.6816 355.6 25.5133 359.258 34.7222 359.258H186.111C195.32 359.258 204.151 355.6 210.663 349.089C217.175 342.577 220.833 333.745 220.833 324.536C220.833 315.327 217.175 306.496 210.663 299.984C204.151 293.472 195.32 289.814 186.111 289.814Z" fill="#D1D5DB"/>
<path fill-rule="evenodd" clip-rule="evenodd" d="M251.388 201.851L144.444 94.9072C137.933 88.4049 129.108 84.7526 119.907 84.7526C110.705 84.7526 101.88 88.4049 95.3699 94.9072C92.0941 98.0991 89.4906 101.915 87.7129 106.129C85.9352 110.343 85.0194 114.87 85.0194 119.444C85.0194 124.018 85.9352 128.545 87.7129 132.76C89.4906 136.974 92.0941 140.789 95.3699 143.981L202.314 250.925C208.825 257.428 217.65 261.08 226.851 261.08C236.052 261.08 244.878 257.428 251.388 250.925C257.89 244.415 261.543 235.59 261.543 226.388C261.543 217.187 257.89 208.362 251.388 201.851V201.851Z" fill="#D1D5DB"/>
<path d="M462.037 67.1289C464.785 60.3131 464.72 52.686 461.857 45.9177C458.993 39.1495 453.564 33.7918 446.759 31.0179C439.935 28.2238 432.289 28.2094 425.455 30.9777C418.621 33.746 413.14 39.0774 410.185 45.8327V45.8327C408.369 52.479 409.045 59.5599 412.087 65.7422C415.128 71.9245 420.325 76.7817 426.698 79.3993C433.071 82.0169 440.181 82.2143 446.69 79.9544C453.199 77.6944 458.657 73.133 462.037 67.1289V67.1289Z" fill="#D1D5DB"/>
<path d="M604.166 239.351C610.98 236.527 616.394 231.112 619.216 224.296C622.037 217.48 622.036 209.823 619.212 203.009C616.388 196.194 610.973 190.78 604.157 187.959C597.342 185.137 589.684 185.138 582.87 187.962V187.962C579.495 189.361 576.43 191.41 573.847 193.993C571.265 196.576 569.217 199.643 567.82 203.017C564.998 209.833 564.999 217.49 567.823 224.305C570.647 231.119 576.063 236.533 582.878 239.355C586.253 240.752 589.87 241.471 593.523 241.47C597.175 241.469 600.792 240.749 604.166 239.351V239.351Z" fill="#D1D5DB"/>
<path d="M582.87 461.573C589.684 464.397 597.342 464.398 604.157 461.577C610.973 458.755 616.388 453.341 619.212 446.527C622.036 439.712 622.038 432.055 619.216 425.239C616.394 418.424 610.98 413.008 604.166 410.184C600.792 408.786 597.175 408.066 593.523 408.065C589.87 408.065 586.253 408.783 582.878 410.181C579.504 411.578 576.437 413.626 573.854 416.208C571.271 418.79 569.222 421.856 567.823 425.23C566.425 428.605 565.705 432.221 565.704 435.874C565.704 439.526 566.423 443.143 567.82 446.518C569.217 449.893 571.265 452.959 573.847 455.542C576.43 458.125 579.495 460.175 582.87 461.573V461.573Z" fill="#D1D5DB"/>
<path d="M410.185 603.702C413.502 609.902 419.012 614.641 425.638 616.993C432.265 619.345 439.53 619.141 446.013 616.42C452.497 613.7 457.732 608.658 460.696 602.282C463.659 595.906 464.137 588.653 462.037 581.943V581.943C458.657 575.939 453.199 571.378 446.69 569.118C440.181 566.858 433.071 567.055 426.698 569.673C420.325 572.29 415.128 577.148 412.087 583.33C409.045 589.512 408.369 596.593 410.185 603.239V603.702Z" fill="#D1D5DB"/>
<path d="M187.964 581.943C185.863 588.653 186.341 595.905 189.305 602.282C192.268 608.658 197.503 613.699 203.987 616.42C210.47 619.141 217.736 619.345 224.362 616.993C230.988 614.641 236.498 609.902 239.815 603.702V603.702C241.24 600.334 241.975 596.715 241.975 593.058C241.975 589.402 241.241 585.782 239.816 582.414C238.391 579.047 236.305 575.999 233.68 573.453C231.056 570.907 227.947 568.913 224.538 567.591C221.166 566.145 217.54 565.382 213.872 565.345C210.203 565.308 206.563 565.998 203.163 567.375C199.762 568.753 196.668 570.79 194.059 573.37C191.451 575.95 189.379 579.021 187.964 582.406V581.943Z" fill="#D1D5DB"/>
<path d="M46.296 410.184C42.8868 411.507 39.7778 413.5 37.1533 416.046C34.5288 418.593 32.4423 421.64 31.0175 425.008C29.5927 428.375 28.8586 431.995 28.8588 435.652C28.8589 439.308 29.5933 442.928 31.0183 446.295C32.3893 449.721 34.4292 452.84 37.0188 455.468C39.6084 458.097 42.6958 460.183 46.1007 461.606C49.5056 463.028 53.1598 463.758 56.8498 463.752C60.5398 463.747 64.1917 463.006 67.5923 461.573V461.573C74.4311 458.704 79.8669 453.26 82.7254 446.417C85.584 439.573 85.6359 431.88 82.8701 424.999C81.4548 421.614 79.3829 418.543 76.7742 415.963C74.1654 413.383 71.0714 411.346 67.6709 409.969C64.2704 408.591 60.6306 407.901 56.9619 407.938C53.2932 407.975 49.6681 408.739 46.296 410.184V410.184Z" fill="#D1D5DB"/>
<path d="M67.5918 187.962C60.7772 185.138 53.1199 185.137 46.3043 187.959C39.4888 190.78 34.0733 196.194 31.2492 203.009C28.4252 209.823 28.4239 217.48 31.2456 224.296C34.0673 231.112 39.4809 236.527 46.2955 239.351V239.351C49.6344 240.789 53.2267 241.545 56.8618 241.577C60.4969 241.608 64.1017 240.913 67.4649 239.534C70.8281 238.154 73.882 236.117 76.4477 233.541C79.0134 230.966 81.0393 227.905 82.4065 224.536C83.8523 221.164 84.6158 217.539 84.6528 213.87C84.6898 210.202 83.9997 206.562 82.6223 203.161C81.2448 199.761 79.2074 196.667 76.6276 194.058C74.0478 191.449 70.9767 189.378 67.5918 187.962V187.962Z" fill="#D1D5DB"/>
<path d="M239.815 45.8329C236.436 39.8289 230.978 35.2675 224.469 33.0075C217.96 30.7475 210.85 30.945 204.477 33.5626C198.103 36.1802 192.907 41.0374 189.865 47.2197C186.824 53.402 186.148 60.4829 187.964 67.1292V67.1292C190.919 73.8845 196.4 79.2159 203.234 81.9842C210.068 84.7525 217.714 84.7381 224.538 81.944C231.343 79.1701 236.772 73.8124 239.635 67.0442C242.499 60.2759 242.564 52.6487 239.815 45.8329V45.8329Z" fill="#D1D5DB"/>
</svg>
